<?xml version="1.0" standalone="no"?>
<!DOCTYPE svg PUBLIC "-//W3C//DTD SVG 20010904//EN"
 "http://www.w3.org/TR/2001/REC-SVG-20010904/DTD/svg10.dtd">
<svg version="1.0" xmlns="http://www.w3.org/2000/svg"
 width="672.000000pt" height="672.000000pt" viewBox="0 0 672.000000 672.000000"
 preserveAspectRatio="xMidYMid meet">
<metadata>
Created by potrace 1.14, written by Peter Selinger 2001-2017
</metadata>
<g transform="translate(0.000000,672.000000) scale(0.100000,-0.100000)"
fill="#000000" stroke="none">
<path d="M0 3360 l0 -2960 2219 0 c1767 0 2220 3 2224 13 2 6 0 25 -4 41 -5
17 -5 34 1 41 5 7 8 14 5 17 -4 4 -6 57 -4 118 0 13 0 83 -1 155 0 52 0 86 3
158 1 42 -2 77 -6 77 -5 0 -5 6 0 13 4 6 6 33 5 60 -2 41 0 47 18 47 22 0 24
-13 20 -115 -2 -60 -2 -66 1 -132 1 -29 0 -55 -3 -58 -3 -3 -2 -23 2 -45 4
-22 4 -40 0 -40 -8 0 -7 -31 3 -47 4 -6 3 -14 -2 -17 -5 -4 -6 -18 -2 -34 5
-15 5 -36 1 -47 -4 -11 -3 -26 2 -32 7 -9 7 -13 0 -13 -7 0 -8 -10 -3 -27 4
-16 4 -40 0 -55 -4 -16 -4 -28 0 -28 5 0 6 -11 3 -25 l-4 -25 1121 0 1121 0 0
2960 0 2960 -1120 0 -1121 0 1 -32 c0 -18 0 -40 0 -48 -1 -8 0 -39 1 -67 2
-29 0 -56 -4 -59 -3 -3 -2 -16 2 -28 5 -11 5 -30 1 -41 -4 -11 -3 -26 2 -32 6
-7 7 -13 2 -13 -5 0 -9 -11 -9 -25 0 -14 2 -25 5 -25 7 0 4 -69 -3 -76 -3 -3
-2 -17 4 -31 5 -13 5 -22 0 -19 -5 3 -6 -8 -1 -27 4 -18 3 -43 -1 -55 -5 -12
-4 -24 1 -27 6 -3 6 -15 0 -29 -5 -15 -5 -27 3 -35 8 -8 8 -11 0 -11 -8 0 -9
-9 -3 -31 8 -28 7 -30 -13 -27 -16 2 -23 12 -27 38 -3 19 -3 46 0 60 4 14 3
38 -2 55 -4 16 -4 31 0 33 5 1 6 24 2 50 -3 26 -3 58 0 72 3 14 3 45 0 70 -3
25 -3 59 0 75 4 17 3 39 0 50 -4 11 -4 31 0 45 3 13 3 45 0 70 -3 25 -3 60 1
77 3 18 4 35 1 38 -3 3 -1004 5 -2224 5 l-2218 0 0 -2960z m4481 1881 c1 -9 0
-20 -1 -26 -1 -5 -2 -14 -2 -20 2 -21 3 -190 2 -195 -6 -20 -5 -50 2 -50 5 0
4 -8 -1 -19 -6 -10 -8 -21 -4 -24 8 -8 8 -91 0 -104 -3 -5 -2 -15 2 -22 5 -7
5 -28 1 -47 -4 -19 -5 -34 -1 -34 4 0 6 -14 3 -31 -5 -34 -36 -38 -39 -4 -1
11 -4 30 -7 42 -2 13 0 25 5 28 5 4 7 10 4 15 -4 7 -6 58 -4 120 0 8 0 42 0
75 0 33 0 67 0 75 0 8 0 24 -1 35 0 11 -1 63 -1 117 0 92 1 96 21 91 11 -3 21
-13 21 -22z m-3 -1086 c4 -38 5 -113 0 -121 -3 -5 -2 -18 2 -29 4 -11 4 -29 0
-41 -5 -11 -5 -27 0 -34 5 -7 4 -23 0 -36 -5 -12 -6 -24 -3 -28 5 -5 7 -127 3
-151 -1 -5 -3 -16 -4 -22 0 -7 -4 -13 -8 -13 -35 0 -36 0 -29 33 5 18 5 41 1
52 -4 11 -4 32 1 47 4 14 5 28 3 31 -2 2 -4 33 -4 68 1 35 0 73 0 84 -1 11 -1
27 -1 35 0 8 1 42 1 75 0 52 2 61 18 61 10 0 19 -5 20 -11z m5 -808 c3 -8 1
-20 -3 -27 -5 -7 -5 -23 0 -34 4 -12 4 -30 0 -41 -4 -11 -3 -26 2 -32 7 -9 7
-13 0 -13 -7 0 -8 -10 -2 -30 5 -16 5 -30 0 -30 -4 0 -5 -12 -1 -27 4 -16 4
-40 -2 -55 -7 -23 -12 -26 -28 -18 -14 8 -16 15 -9 34 5 13 7 26 4 28 -2 3 -4
36 -4 74 1 79 1 98 -1 136 0 15 2 32 6 38 9 14 32 12 38 -3z m-9 -636 c4 -5 6
-20 6 -33 0 -32 0 -59 3 -156 1 -45 -1 -82 -5 -82 -4 0 -5 -7 -1 -16 7 -18
-13 -35 -33 -27 -8 3 -10 13 -5 31 4 15 5 38 1 52 -4 14 -3 37 1 52 4 14 5 28
3 31 -7 7 -6 135 1 147 8 12 22 13 29 1z m8 -645 c4 -5 3 -17 -2 -26 -5 -9 -5
-22 0 -29 4 -8 4 -26 0 -41 -5 -18 -4 -32 3 -39 6 -6 7 -11 2 -11 -6 0 -10
-11 -10 -25 0 -14 2 -25 5 -25 7 0 4 -69 -3 -76 -3 -3 -2 -16 2 -28 5 -11 5
-30 1 -41 -4 -11 -3 -26 2 -32 7 -9 7 -13 -1 -13 -7 0 -9 -5 -5 -11 5 -9 9
-151 5 -206 -2 -21 -36 -7 -35 16 0 11 -4 21 -9 21 -6 0 -6 5 -1 13 5 6 8 35
7 62 -2 28 -3 75 -3 105 1 30 1 62 0 70 0 13 1 53 1 85 0 9 0 99 -1 150 0 33
1 79 2 92 1 12 29 5 40 -11z"/>
</g>
</svg>
